<svg width="692" height="525" viewBox="0 0 692 525" fill="none" xmlns="http://www.w3.org/2000/svg">
<path d="M269.539 424.14C281.285 399.57 293.799 366.89 303.788 341.49C326.77 282.549 349.224 223.403 371.139 164.059C380.294 139.746 388.559 114.801 398.949 91.0799C401.324 85.6579 410.81 82.2069 416.139 81.2819C429.055 79.0409 474.814 77.7944 484.984 84.1724L485.28 84.9829C480.945 89.5169 451.695 85.3469 436.975 101.584C432.845 106.135 430.699 111.626 430.954 117.791C431.43 129.347 440.384 137.125 446.395 146.118C450.18 151.725 452.949 157.955 454.574 164.523C457.044 174.838 455.605 185.902 453.34 196.105C451.945 202.387 450.025 209.438 449.704 215.759C448.72 235.243 460.53 251.531 474.65 263.695C477.949 266.783 481.534 269.299 485.114 272.021C491.054 276.539 500.74 281.919 500.655 290.594C500.525 303.492 488.724 313.119 480.249 321.445C476.854 324.78 471.36 329.425 471.42 334.905C472.2 341.575 479.255 347.54 479.085 354.745C479.704 368.43 467.274 378.595 465.739 390.15C464.414 400.16 474.524 407.585 464.569 419.41C454.754 431.08 436.039 434.465 421.614 435.455C413.244 436.035 404.845 436.075 396.47 435.57C376.825 434.41 348.884 429.675 334.27 446.575C317.604 465.84 327.099 492.405 319.704 513.64C337.365 511.16 352.77 508.8 370.009 503.91C433.289 485.48 489.015 447.285 529.025 394.915C550.26 366.735 571.514 326.38 567.229 289.964C566.404 282.939 563.525 276.695 557.795 272.295C560.29 271.345 560.765 270.168 562.125 267.923C566.5 271.991 574.184 278.495 580.079 272.726C582.364 270.492 581.715 266.09 583.63 264.275C587.96 265.676 587.884 280.707 588.094 284.975C593 384.975 521.259 470.175 432.424 507.115C394.404 522.92 351.799 525.65 311.034 524.14C303.058 523.82 288.357 523.73 281.155 520.83L280.779 520.21C285.706 517.17 305.73 519.175 310.895 513.46C315.94 507.88 316.264 490.395 316.544 483.33C317.294 464.28 321.884 445.515 339.119 434.9C347.459 429.595 357.244 427.165 367.299 426.855C393.904 426.04 429.699 434.99 453.96 420.525C457.109 418.645 460.984 414.78 461.764 411.01C463.435 402.99 457.985 396.435 459.855 387.76C462.29 376.465 472.444 368.455 472.804 356.605C473.099 346.73 461.59 340.895 465.704 330.2C470.115 318.735 498.349 301.542 492.194 287.398C490.974 284.594 483.685 278.78 480.855 276.716C466.14 265.986 453.804 254.853 446.614 237.467C435.059 209.542 459.585 184.021 444.014 155.209C438.549 145.093 431.52 137.42 424.134 128.693C418.004 121.592 412.064 114.333 406.309 106.925C400.689 120.449 395.309 135.461 390.069 149.228L362.004 222.599C337.094 288.236 311.039 353.435 283.856 418.16L258.97 477.98C255.492 486.35 249.572 501.84 245.668 509.28C241.93 503.69 233.154 483.97 229.983 477.18C221.116 458.03 212.08 438.96 202.877 419.975L112.438 234.405L80.4275 167.161C76.058 158.038 69.897 144.18 65.032 135.583C64.5805 214.512 65.018 293.444 66.3445 372.365C66.621 388.615 66.771 404.87 66.7945 421.12C66.9835 456.13 64.7265 492.07 105.307 502.385C109.102 503.35 121.114 504.33 123.069 506.355C122.783 507.235 123.007 507.175 122.257 507.535C116.93 510.105 8.87299 509.93 3.71199 507.415C3.54549 507.335 3.39749 507.22 3.23999 507.125L3.2585 506.14C5.2755 504.295 12.169 504.36 15.231 503.89C47.0465 499 55.3195 477.49 55.9065 448.11C56.33 426.91 56.1515 405.63 56.148 384.505L56.107 267.532C56.0955 237.243 56.257 206.94 55.869 176.654C55.6835 162.179 56.242 147.038 54.579 132.683C53.2875 121.533 50.9805 108.979 43.0485 100.451C29.628 86.0224 2.832 88.1434 0 85.0729C0.0695 84.2489 -0.123501 84.0559 0.577499 83.5064C8.6335 77.1954 85.579 79.6589 97.688 81.9934C103.697 83.1514 110.347 85.1739 113.976 90.4644C119.674 98.7724 124.636 112.32 128.985 121.699L162.504 194.444L269.539 424.14Z" fill="#FF6675"/>
<path d="M557.795 272.295C541.17 262.817 535.11 236.52 549.325 222.087C557.045 214.248 555.675 209 559.105 199.644C579.12 145.044 638.07 120.59 691.435 116.967C679.09 153.963 662.44 183.33 626.81 202.368C616.32 207.974 607.535 211.739 595.72 214.441C586.3 216.662 571.565 215.879 563.885 222.081C552.89 230.959 553.365 257.937 562.125 267.923C560.765 270.168 560.29 271.345 557.795 272.295Z" fill="#0B6623"/>
<path d="M579.39 0C580.385 1.5405 583.715 10.55 584.565 12.811C593.185 35.771 600.78 66.3795 597.765 90.8795C595.29 110.96 583.535 131.569 569.205 145.424C563.72 150.73 557.1 155.671 550.94 160.308L544.94 164.909C540.115 144.114 542.3 131.382 540.945 111.056C540.1 98.426 535.855 86.2135 536.275 72.189C536.445 67.806 537.545 63.5095 539.495 59.582C542.785 52.814 551.39 41.0245 556.085 34.5515C564.75 22.6095 571.625 12.517 579.39 0Z" fill="#0B6623"/>
<path d="M490.18 111.242C493.365 112.837 498.675 116.948 501.38 119.29C520.305 135.644 532.645 154.095 534.38 179.485C535.535 196.436 532.995 210.735 529.36 227.204C528.91 229.26 528.065 234.368 526.875 235.759L526.055 235.201C502.765 218.397 485.69 201.981 480.81 172.277C477.025 149.215 481.97 132.296 490.18 111.242Z" fill="#0B6623"/>
</svg>
