<svg viewBox="0 0 361 48" fill="none" xmlns="http://www.w3.org/2000/svg">
<g clip-path="url(#clip0_309_98122)">
<path d="M24.67 0.549805H20.49L0 47.0198H6.19L11.75 34.4798H33.42L38.95 47.0198H45.18L24.67 0.549805ZM14.27 28.7898L22.58 9.9098L30.92 28.7898H14.27Z" fill="#111111"></path>
<path d="M121.04 0.549805H113.61L97.99 19.3498L82.37 0.549805H74.99L94.3 23.7998L74.98 47.0198H82.37L97.99 28.2498L113.61 47.0198H121.04L101.69 23.7998L121.04 0.549805Z" fill="#111111"></path>
<path d="M154.83 6.2298H161.51V41.3298H154.83V47.0198H173.92V41.3298H167.23V6.2298H173.92V0.549805H154.83V6.2298Z" fill="#111111"></path>
<path d="M219.13 7.79C220.91 6.4 223.06 5.72 225.7 5.72C227.62 5.72 229.53 6.32 231.39 7.5C233.19 8.65 234.37 10.11 234.99 11.98L235.67 14.03L241.15 12.36L240.42 10.2C239.37 7.1 237.39 4.59 234.55 2.74C231.76 0.92 228.79 0 225.72 0C221.75 0 218.32 1.14 215.53 3.38C212.63 5.72 211.06 9.06 210.87 13.36C210.92 19.95 215.65 24.37 224.92 26.5C231.98 28.02 235.41 30.52 235.41 34.1C235.32 36.65 234.46 38.44 232.7 39.74C230.81 41.13 228.45 41.84 225.69 41.84C223.77 41.84 221.87 41.24 220.03 40.06C218.23 38.91 217.05 37.44 216.41 35.56L215.72 33.53L210.26 35.2L210.99 37.36C212.04 40.46 214.02 42.97 216.88 44.83C219.68 46.65 222.64 47.57 225.69 47.57C229.78 47.57 233.33 46.44 236.23 44.22C239.29 41.88 240.93 38.53 241.09 34.21C241.03 27.62 236.15 23.15 226.56 20.94H226.54C219.82 19.44 216.55 16.99 216.55 13.49C216.66 10.95 217.51 9.08 219.15 7.8L219.13 7.79Z" fill="#111111"></path>
<path d="M298.11 28.79H269.19V34.47H298.11V28.79Z" fill="#111111"></path>
<path d="M353.31 0.549805L336.66 22.7598L320.01 0.549805H312.88L333.8 28.4398V47.0198H339.52V28.4398L360.44 0.549805H353.31Z" fill="#111111"></path>
</g>
<defs>
<clipPath id="clip0_309_98122">
<rect width="360.44" height="47.56" fill="white"></rect>
</clipPath>
</defs>
</svg>
